<svg width="864" height="365" viewBox="0 0 864 365" fill="none" xmlns="http://www.w3.org/2000/svg">
<rect width="864" height="365" fill="#E5E5E5"/>
<g id="undraw_quick_chat_re_bit5 1" clip-path="url(#clip0_0_1)">
<g id="bird">
<path id="Vector" d="M546.088 210.879C544.375 278.953 598.171 335.526 666.244 337.238C734.318 338.951 790.891 285.155 792.603 217.082C794.316 149.009 740.521 92.436 672.447 90.7231C604.374 89.0103 547.801 142.806 546.088 210.879Z" fill="#3F3D56"/>
<path id="Vector_2" d="M661.404 136.134C664.992 139.287 667.843 143.19 669.757 147.566C671.671 151.942 672.601 156.686 672.481 161.461C672.361 166.236 671.194 170.926 669.062 175.201C666.93 179.475 663.886 183.23 660.144 186.199C664.965 191.51 671.252 195.272 678.21 197.009C685.169 198.747 692.487 198.382 699.238 195.961C705.989 193.54 711.871 189.171 716.139 183.407C720.407 177.643 722.871 170.743 723.217 163.579C723.564 156.415 721.779 149.309 718.087 143.16C714.395 137.011 708.963 132.094 702.477 129.033C695.991 125.971 688.743 124.901 681.649 125.959C674.555 127.016 667.934 130.154 662.623 134.974C662.208 135.351 661.802 135.738 661.404 136.134Z" fill="white"/>
<path id="Vector_3" d="M658.941 234.015C662.529 237.168 665.38 241.071 667.294 245.447C669.208 249.823 670.138 254.567 670.018 259.342C669.898 264.117 668.731 268.807 666.599 273.082C664.467 277.356 661.423 281.111 657.681 284.08C662.502 289.39 668.789 293.153 675.747 294.89C682.706 296.628 690.024 296.263 696.775 293.842C703.526 291.421 709.408 287.052 713.676 281.288C717.945 275.524 720.408 268.624 720.755 261.46C721.101 254.296 719.316 247.19 715.624 241.041C711.932 234.892 706.5 229.975 700.014 226.914C693.528 223.852 686.28 222.782 679.186 223.84C672.092 224.897 665.471 228.035 660.161 232.855C659.745 233.232 659.339 233.619 658.941 234.015Z" fill="white"/>
<path id="Vector_4" d="M687.181 149.456C687.008 156.343 692.451 162.067 699.338 162.24C706.225 162.413 711.949 156.971 712.122 150.084C712.295 143.196 706.853 137.473 699.966 137.299C693.078 137.126 687.355 142.569 687.181 149.456Z" fill="#3F3D56"/>
<path id="Vector_5" d="M684.719 247.333C684.545 254.221 689.988 259.944 696.875 260.118C703.762 260.291 709.486 254.848 709.659 247.961C709.833 241.074 704.39 235.35 697.503 235.177C690.616 235.004 684.892 240.446 684.719 247.333Z" fill="#3F3D56"/>
<path id="Vector_6" d="M626.265 124.023C626.064 132.031 632.393 138.687 640.401 138.888C648.41 139.09 655.066 132.761 655.267 124.752C655.469 116.744 649.14 110.088 641.131 109.887C633.122 109.685 626.467 116.014 626.265 124.023Z" fill="#6C63FF"/>
<path id="Vector_7" d="M622.069 290.783C621.868 298.791 628.197 305.447 636.205 305.649C644.214 305.85 650.87 299.521 651.071 291.513C651.273 283.504 644.944 276.848 636.935 276.647C628.926 276.445 622.271 282.774 622.069 290.783Z" fill="#6C63FF"/>
<path id="Vector_8" d="M667.671 208.497L620.816 196.436L638.485 215.017L667.671 208.497Z" fill="#6C63FF"/>
<path id="Vector_9" d="M485.003 259.819L495.676 247.731L485.306 247.759L485.403 243.924L496.368 243.893L485.83 226.946L486.006 219.967L500.877 243.882L533.368 243.787L557.908 243.724L557.916 247.552L533.272 247.623L500.809 247.717L484.853 265.781L485.003 259.819Z" fill="#3F3D56"/>
<path id="Vector_10" d="M486.462 201.81L497.136 189.724L486.766 189.751L486.862 185.926L497.827 185.895L487.289 168.948L487.465 161.969L502.336 185.874L534.828 185.781L559.367 185.717L559.376 189.553L534.731 189.624L502.269 189.709L486.312 207.773L486.462 201.81Z" fill="#3F3D56"/>
<path id="Vector_11" d="M801.621 219.123C801.706 215.741 799.154 212.691 795.169 210.595C801.281 208.989 805.594 205.402 805.702 201.088C805.68 200.794 805.639 200.502 805.578 200.214C812.098 198.718 816.738 194.979 816.851 190.486C817.003 184.479 809.01 179.406 798.999 179.154C788.988 178.902 780.75 183.567 780.599 189.574C780.621 189.868 780.663 190.16 780.724 190.448C774.203 191.943 769.563 195.683 769.45 200.176C769.365 203.558 771.917 206.607 775.902 208.704C769.79 210.309 765.477 213.897 765.369 218.211C765.217 224.217 773.21 229.29 783.221 229.542C793.232 229.794 801.47 225.129 801.621 219.123Z" fill="#3F3D56"/>
<path id="Vector_12" d="M668.435 97.6734L681.156 30.0517C681.797 26.644 682.441 23.1739 682.044 19.7293C681.648 16.2846 680.044 12.806 677.096 10.9809C675.679 10.1038 674.039 9.65457 672.373 9.68722C670.707 9.71987 669.086 10.233 667.704 11.165C666.323 12.0969 665.24 13.4081 664.586 14.9408C663.932 16.4734 663.734 18.1623 664.017 19.8046C664.23 16.1014 664.408 12.2079 662.778 8.87596C661.148 5.54401 657.045 3.11051 653.661 4.62981C652.727 5.08772 651.886 5.71788 651.185 6.48729C648.904 8.9065 647.355 11.9221 646.717 15.1851C646.079 18.4481 646.378 21.8251 647.579 24.9253C644.057 22.3354 643.649 17.362 642.927 13.0505C642.205 8.73895 639.903 3.71778 635.54 3.44844C630.637 3.14581 627.882 8.92023 626.762 13.7028C620.834 39.2416 622.336 65.9433 631.089 90.6566C631.967 93.4313 633.231 96.0685 634.844 98.4905C636.803 101.209 639.503 103.306 642.622 104.529C645.741 105.753 649.147 106.052 652.432 105.39C655.716 104.728 658.74 103.134 661.142 100.798C663.544 98.4616 665.222 95.4828 665.975 92.218" fill="#3F3D56"/>
<path id="Vector_13" d="M605.406 389.347C629.381 378.737 649.82 361.489 664.312 339.64C666.002 337.272 667.35 334.676 668.316 331.931C669.312 328.732 669.365 325.314 668.468 322.086C667.572 318.857 665.764 315.956 663.261 313.728C660.758 311.501 657.666 310.042 654.356 309.526C651.045 309.01 647.656 309.459 644.594 310.819L647.476 305.575C626.912 315.732 606.347 325.889 585.783 336.047C582.674 337.582 579.514 339.153 576.999 341.54C574.484 343.928 572.668 347.3 572.981 350.753C573.1 352.124 573.546 353.446 574.282 354.608C575.018 355.771 576.022 356.74 577.209 357.434C578.397 358.128 579.734 358.528 581.108 358.598C582.483 358.669 583.854 358.408 585.106 357.839C582.958 359.283 581.177 361.209 579.903 363.462C578.22 366.767 578.74 371.509 581.988 373.3C582.916 373.772 583.925 374.065 584.961 374.163C588.265 374.532 591.607 373.958 594.598 372.507C597.59 371.056 600.109 368.788 601.865 365.965C601.912 370.336 598.182 373.651 595.17 376.819C592.157 379.987 589.528 384.845 591.935 388.494C594.639 392.594 600.91 391.326 605.406 389.347Z" fill="#3F3D56"/>
</g>
</g>
<defs>
<clipPath id="clip0_0_1">
<rect width="863.917" height="364.205" fill="white"/>
</clipPath>
</defs>
</svg>
