<svg width="1003" height="517" viewBox="0 0 1003 517" fill="none" xmlns="http://www.w3.org/2000/svg">
<g id="undraw_towing_-6-yy4 1">
<g id="truck">
<path id="Vector" d="M654.961 193.767H642.851V279.752H654.961V193.767Z" fill="#3F3D56"/>
<path id="Vector_2" d="M879.005 366.947H773.644V408.123H879.005V366.947Z" fill="#3F3D56"/>
<path id="Vector_3" d="M869.317 403.278H349.778V449.298H869.317V403.278Z" fill="#3F3D56"/>
<path id="Vector_4" d="M783.938 426.288H659.2V269.458H752.451L783.938 348.555V426.288Z" fill="#D0CDE1"/>
<path id="Vector_5" d="M731.863 279.146H678.577V332.432H731.863V279.146Z" fill="white"/>
<path id="Vector_6" d="M771.827 333.038H737.918V279.752H752.451L771.827 333.038Z" fill="white"/>
<path id="Vector_7" d="M693.109 362.708H680.999V385.718H693.109V362.708Z" fill="#3F3D56"/>
<path id="Vector_8" d="M748.212 313.661H748.818C751.869 313.661 754.795 314.873 756.953 317.031C759.11 319.188 760.322 322.115 760.322 325.166V325.166C760.322 328.217 759.11 331.144 756.953 333.301C754.795 335.459 751.869 336.671 748.818 336.671H748.212V313.661Z" fill="#3F3D56"/>
<path id="Vector_9" d="M297.703 403.278H298.308C301.36 403.278 304.286 404.491 306.444 406.648C308.601 408.806 309.813 411.732 309.813 414.783V414.783C309.813 417.835 308.601 420.761 306.444 422.919C304.286 425.076 301.36 426.288 298.308 426.288H297.703V403.278Z" fill="#3F3D56"/>
<path id="Vector_10" d="M832.38 403.105C850.834 403.105 867.434 412.045 878.952 426.288H902.62L879.61 362.192L772.433 341.054L775.461 426.288H785.807C797.325 412.045 813.925 403.105 832.38 403.105Z" fill="#D0CDE1"/>
<g id="wheel-2">
<path id="Vector_11" d="M833.591 494.107C862.685 494.107 886.271 470.521 886.271 441.426C886.271 412.332 862.685 388.746 833.591 388.746C804.496 388.746 780.91 412.332 780.91 441.426C780.91 470.521 804.496 494.107 833.591 494.107Z" fill="#3F3D56"/>
<path id="Vector_12" d="M833.591 469.153C848.904 469.153 861.317 456.739 861.317 441.426C861.317 426.113 848.904 413.7 833.591 413.7C818.278 413.7 805.864 426.113 805.864 441.426C805.864 456.739 818.278 469.153 833.591 469.153Z" fill="#D0CDE1"/>
</g>
<g id="wheel-1">
<path id="Vector_13" d="M357.65 493.501C383.066 493.501 403.669 472.898 403.669 447.482C403.669 422.066 383.066 401.462 357.65 401.462C332.234 401.462 311.63 422.066 311.63 447.482C311.63 472.898 332.234 493.501 357.65 493.501Z" fill="#3F3D56"/>
<path id="Vector_14" d="M357.65 471.703C371.026 471.703 381.87 460.858 381.87 447.482C381.87 434.105 371.026 423.261 357.65 423.261C344.273 423.261 333.429 434.105 333.429 447.482C333.429 460.858 344.273 471.703 357.65 471.703Z" fill="#D0CDE1"/>
</g>
<path id="Vector_15" d="M662.833 247.659H637.401V431.132H662.833V247.659Z" fill="#3F3D56"/>
<path id="Vector_16" d="M662.833 397.829H297.097V408.728H662.833V397.829Z" fill="#3F3D56"/>
<path id="Vector_17" d="M755.478 335.46H743.368V340.304H755.478V335.46Z" fill="#3F3D56"/>
<g id="crane">
<path id="Vector_18" d="M500.232 329.316L101.372 437.83L104.233 448.347L503.093 339.833L500.232 329.316Z" fill="#3F3D56"/>
<path id="Vector_19" d="M473.007 342.537L466.176 347.557L508.135 404.653L514.966 399.633L473.007 342.537Z" fill="#3F3D56"/>
<path id="Vector_20" d="M648.906 371.791H490.259C489.968 371.791 489.687 371.686 489.467 371.496C489.247 371.305 489.103 371.042 489.061 370.754C489.019 370.466 489.083 370.173 489.239 369.928C489.396 369.683 489.636 369.502 489.915 369.419L644.929 323.4C645.102 323.348 645.284 323.336 645.462 323.364C645.641 323.392 645.81 323.46 645.959 323.562C646.108 323.664 646.232 323.798 646.322 323.955C646.412 324.111 646.466 324.285 646.481 324.465L650.114 370.485C650.127 370.651 650.105 370.819 650.05 370.977C649.996 371.135 649.909 371.279 649.796 371.402C649.682 371.525 649.545 371.623 649.392 371.69C649.239 371.757 649.073 371.791 648.906 371.791V371.791ZM498.593 369.369H647.596L644.184 326.147L498.593 369.369Z" fill="#3F3D56"/>
</g>
<path id="Vector_21" d="M887.528 384.649L886.961 384.863C884.107 385.942 880.941 385.844 878.16 384.589C875.379 383.334 873.21 381.026 872.13 378.172V378.172C871.051 375.318 871.149 372.152 872.404 369.371C873.659 366.589 875.967 364.42 878.821 363.341L879.388 363.127L887.528 384.649Z" fill="#3F3D56"/>
<g id="back-car">
<path id="Vector_22" d="M206.837 10.7797L202.283 22.0011L650.432 203.898L654.987 192.677L206.837 10.7797Z" fill="#3F3D56"/>
<path id="Vector_23" d="M219.299 318.505H219.288L184.522 318.178C184.352 318.176 184.185 318.139 184.03 318.068C183.876 317.998 183.738 317.896 183.626 317.768C183.513 317.641 183.429 317.492 183.378 317.33C183.327 317.168 183.311 316.997 183.33 316.829L201.394 159.214C201.428 158.918 201.569 158.646 201.791 158.448C202.013 158.25 202.3 158.14 202.597 158.14H202.603C202.901 158.142 203.188 158.253 203.409 158.453C203.631 158.653 203.77 158.928 203.802 159.224L220.504 317.167C220.522 317.336 220.504 317.506 220.451 317.668C220.399 317.829 220.313 317.978 220.2 318.104C220.086 318.23 219.947 318.331 219.792 318.4C219.637 318.469 219.469 318.505 219.299 318.505V318.505ZM185.89 315.768L217.952 316.07L202.549 170.41L185.89 315.768Z" fill="#3F3D56"/>
<path id="Vector_24" d="M150.879 391.711L117.097 401.167L118.598 406.529L152.38 397.073L150.879 391.711Z" fill="#3F3D56"/>
<path id="Vector_25" d="M395.503 324.686L388.982 328.246L124.089 402.39L120.157 397.505C113.342 389.144 108.986 379.054 107.576 368.361C106.575 360.376 107.307 351.96 112.877 346.838L102.761 265.248L249.261 224.044L318.746 253.943C318.746 253.943 345.362 245.99 364.948 260.023C371.148 264.469 376.646 271.117 380.364 280.93L383.567 290.182L395.503 324.686Z" fill="#6C63FF"/>
<path id="Vector_26" d="M336.948 373.597C355.707 373.597 370.914 358.389 370.914 339.63C370.914 320.871 355.707 305.663 336.948 305.663C318.188 305.663 302.981 320.871 302.981 339.63C302.981 358.389 318.188 373.597 336.948 373.597Z" fill="#3F3D56"/>
<path id="Vector_27" d="M336.948 357.507C346.821 357.507 354.825 349.503 354.825 339.63C354.825 329.757 346.821 321.753 336.948 321.753C327.074 321.753 319.071 329.757 319.071 339.63C319.071 349.503 327.074 357.507 336.948 357.507Z" fill="#D0CDE1"/>
<path id="Vector_28" d="M175.545 418.774C194.305 418.774 209.512 403.566 209.512 384.807C209.512 366.048 194.305 350.84 175.545 350.84C156.786 350.84 141.579 366.048 141.579 384.807C141.579 403.566 156.786 418.774 175.545 418.774Z" fill="#3F3D56"/>
<path id="Vector_29" d="M175.545 402.684C185.419 402.684 193.423 394.68 193.423 384.807C193.423 374.934 185.419 366.93 175.545 366.93C165.672 366.93 157.668 374.934 157.668 384.807C157.668 394.68 165.672 402.684 175.545 402.684Z" fill="#D0CDE1"/>
<path id="Vector_30" d="M294.724 254.884L189.624 284.302L180.769 252.665L247.797 233.903L294.724 254.884Z" fill="white"/>
<path id="Vector_31" d="M167.9 256.267L126.075 267.974L134.93 299.611L176.755 287.904L167.9 256.267Z" fill="white"/>
<path id="Vector_32" d="M201.591 306.394L196.228 307.895L199.08 318.084L204.442 316.583L201.591 306.394Z" fill="#3F3D56"/>
<path id="Vector_33" d="M287.515 272.514L286.015 267.152L275.826 270.003L277.327 275.366L287.515 272.514Z" fill="#3F3D56"/>
<path id="Vector_34" d="M273.967 248.898L274.556 248.733C277.529 247.901 280.71 248.284 283.4 249.797C286.09 251.311 288.068 253.831 288.9 256.803C289.732 259.775 289.349 262.956 287.836 265.646C286.323 268.336 283.802 270.315 280.83 271.147L280.24 271.312L273.967 248.898Z" fill="#3F3D56"/>
<path id="Vector_35" d="M383.567 290.182C379.634 291.755 375.273 291.891 371.25 290.565C367.227 289.238 363.802 286.535 361.577 282.931C359.351 279.326 358.47 275.053 359.086 270.862C359.703 266.671 361.779 262.833 364.948 260.023C371.148 264.469 376.646 271.117 380.364 280.93L383.567 290.182Z" fill="#3F3D56"/>
<path id="Vector_36" d="M208.085 10.8994H195.975V187.712H208.085V10.8994Z" fill="#3F3D56"/>
<path id="Vector_37" d="M202.03 33.9093C211.394 33.9093 218.985 26.3184 218.985 16.9547C218.985 7.59086 211.394 0 202.03 0C192.666 0 185.075 7.59086 185.075 16.9547C185.075 26.3184 192.666 33.9093 202.03 33.9093Z" fill="#3F3D56"/>
</g>
<path id="Vector_38" d="M649.5 229C666.345 229 680 215.121 680 198C680 180.879 666.345 167 649.5 167C632.655 167 619 180.879 619 198C619 215.121 632.655 229 649.5 229Z" fill="#3F3D56"/>
</g>
</g>
</svg>
